<svg preserveAspectRatio="none" overflow="visible" style="display: block;" width="19.083" height="22.6751" viewBox="0 0 19.083 22.6751" fill="none" xmlns="http://www.w3.org/2000/svg">
<path id="Union" d="M6.615 0.0718996C8.73227 -0.0239504 10.3952 -0.0239826 12.5125 0.0718996C13.7243 0.126784 14.734 0.16964 15.5388 0.31604C16.3781 0.468733 17.1131 0.75197 17.7195 1.36096C18.3267 1.97096 18.6058 2.71036 18.7546 3.55334C18.8975 4.36267 18.9362 5.37834 18.9861 6.59924C19.1268 10.0387 19.1124 12.6459 18.9548 16.0817C18.8987 17.3061 18.8539 18.3238 18.7078 19.1334C18.5557 19.9755 18.275 20.7138 17.6677 21.3209C17.0616 21.9266 16.3276 22.2082 15.49 22.36C14.6865 22.5055 13.6788 22.5484 12.4685 22.6031C10.351 22.699 8.68759 22.699 6.57008 22.6031C5.35826 22.5483 4.34848 22.5054 3.54371 22.359C2.70456 22.2063 1.97031 21.923 1.36402 21.3141C0.75669 20.704 0.477734 19.9648 0.328865 19.1217C0.18599 18.3123 0.146386 17.2968 0.0964433 16.0758C-0.0442463 12.6363 -0.0288965 10.0292 0.12867 6.59338C0.184819 5.36901 0.228622 4.3512 0.374764 3.54163C0.526849 2.69939 0.808262 1.96132 1.41578 1.35413C2.02182 0.748441 2.75501 0.466859 3.59254 0.315064C4.39606 0.169454 5.4045 0.126705 6.615 0.0718996ZM12.4226 2.06995C10.3654 1.97678 8.76208 1.9768 6.70484 2.06995C5.43921 2.12725 4.58927 2.16778 3.94898 2.28381C3.34305 2.39368 3.04557 2.55161 2.82887 2.76819C2.61377 2.98321 2.45455 3.28221 2.34351 3.89709C2.2739 4.28274 2.23262 4.74399 2.19703 5.32385H15.2087V7.32385H2.10035C1.97194 10.3963 1.96515 12.8317 2.09449 15.9938C2.1467 17.2702 2.1845 18.1278 2.29859 18.774C2.4067 19.3863 2.56476 19.6856 2.78101 19.903C2.9984 20.1213 3.29589 20.2809 3.90211 20.3912C4.54291 20.5078 5.39351 20.5487 6.6609 20.6061C8.71798 20.6992 10.3206 20.6992 12.3777 20.6061C13.6434 20.5488 14.4932 20.5073 15.1336 20.3912C15.7397 20.2814 16.0369 20.1235 16.2537 19.9069C16.4688 19.6918 16.628 19.393 16.739 18.778C16.856 18.13 16.8981 17.2692 16.9568 15.9899C17.1119 12.608 17.1262 10.0592 16.988 6.68127C16.9358 5.40488 16.899 4.54723 16.7849 3.901C16.6768 3.28853 16.5179 2.98943 16.3015 2.77209C16.0841 2.55381 15.7866 2.39409 15.1804 2.28381C14.5397 2.16732 13.6895 2.12732 12.4226 2.06995ZM7.87476 17.2457H5.87476V14.5787H7.87476V17.2457ZM13.2078 17.2457H11.2078V14.5787H13.2078V17.2457ZM7.87476 12.5582H5.87476V9.89124H7.87476V12.5582ZM13.2078 12.5582H11.2078V9.89124H13.2078V12.5582Z" fill="#FB725C"/>
</svg>
